
<svg viewBox="0 0 263 38" fill="none" xmlns="http://www.w3.org/2000/svg">
<g clip-path="url(#clip0_2611_146677)">
<path d="M57.0796 32H47.2012V0.45229H57.0796V32Z" fill="#00FFD8"/>
<path d="M252.574 5.4136C252.574 4.72139 252.253 3.68342 247.532 3.68342C242.786 3.68342 242.514 4.72139 242.514 5.4136V5.48781C242.514 6.20465 242.885 7.26758 247.532 7.26758C252.228 7.26758 252.574 6.20465 252.574 5.48781V5.4136ZM253.068 13.0518C253.068 12.1866 252.623 11.1982 247.532 11.1982C242.391 11.1982 242.02 12.1866 242.02 13.0518V13.126C242.02 13.9171 242.49 15.0542 247.532 15.0542C252.623 15.0542 253.068 13.9171 253.068 13.126V13.0518ZM258.53 5.21592C258.53 7.58906 256.232 8.82471 254.774 9.02273C256.677 9.34387 259 10.6787 259 13.1507V13.4721C259 15.5238 257.863 19.083 248.1 19.083H247.013C237.052 19.083 236.088 15.5238 236.088 13.4721V13.1507C236.088 10.7532 238.461 9.41808 240.339 9.02273C238.733 8.75084 236.533 7.58906 236.533 5.21592V4.96866C236.533 3.2631 237.225 7.82013e-05 247.013 7.82013e-05H248.1C257.863 7.82013e-05 258.53 3.2631 258.53 4.96866V5.21592Z" fill="#00FFD8"/>
<path d="M30.089 31.999H15.7734C7.07584 31.999 0 24.9225 0 16.224C0 7.54373 7.06134 0.481663 15.7407 0.481663H30.5002C37.287 0.481663 42.8085 6.0038 42.8085 12.7909H33.6897C33.6897 11.0321 32.2589 9.60112 30.5002 9.60112H15.7407C12.0894 9.60112 9.11886 12.572 9.11886 16.224C9.11886 19.8938 12.1039 22.8796 15.7734 22.8796H30.089C32.0747 22.8796 33.6897 21.2641 33.6897 19.2785H42.8085C42.8085 26.2927 37.1025 31.999 30.089 31.999Z" fill="#00FFD8"/>
<path d="M88.5039 31.999H74.1883C67.1748 31.999 61.4688 26.2927 61.4688 19.2785H70.5873C70.5873 21.2641 72.2026 22.8796 74.1883 22.8796H88.5039C92.1733 22.8796 95.1584 19.8938 95.1584 16.224C95.1584 12.572 92.1878 9.60112 88.5366 9.60112H73.7771C72.0181 9.60112 70.5873 11.0321 70.5873 12.7909H61.4688C61.4688 6.0038 66.99 0.481663 73.7771 0.481663H88.5366C97.216 0.481663 104.277 7.54373 104.277 16.224C104.277 24.9225 97.2014 31.999 88.5039 31.999Z" fill="#00FFD8"/>
<path d="M177.252 22.8799H159.624V9.60176H177.285C180.936 9.60176 183.907 12.5727 183.907 16.2246C183.907 19.8945 180.922 22.8799 177.252 22.8799ZM177.285 0.482302H159.624V0.452282H149.754V32H159.624V31.9993H177.252C185.95 31.9993 193.026 24.9228 193.026 16.2243C193.026 7.54403 185.964 0.482302 177.285 0.482302Z" fill="#00FFD8"/>
<path d="M124.214 7.27923L118.363 19.1095H130.319L124.214 7.27923ZM133.965 26.233H114.844L112.004 32H101.955L117.897 0.452282H130.701L147.575 32H136.933L133.965 26.233Z" fill="#00FFD8"/>
<path d="M213.087 7.27923L207.236 19.1095H219.193L213.087 7.27923ZM222.839 26.233H203.718L200.877 32H190.828L206.77 0.452282H219.574L236.448 32H225.807L222.839 26.233Z" fill="#00FFD8"/>
</g>
<defs>
<clipPath id="clip0_2611_146677">
<rect width="259" height="32" fill="white" transform="matrix(1 0 0 -1 0 32)"/>
</clipPath>
</defs>
</svg>